M48
;DRILL file {KiCad 4.0.2-stable} date 08/04/2016 14:32:01
;FORMAT={-:-/ absolute / metric / decimal}
FMAT,2
METRIC,TZ
T1C0.650
T2C1.016
%
G90
G05
M71
T1
X188.976Y-111.252
X188.976Y-113.252
X188.976Y-115.252
X188.976Y-117.252
X188.976Y-119.252
X188.976Y-121.252
X188.976Y-123.252
X188.976Y-125.252
X202.976Y-111.252
X202.976Y-113.252
X202.976Y-115.252
X202.976Y-117.252
X202.976Y-119.252
X202.976Y-121.252
X202.976Y-123.252
X202.976Y-125.252
T2
X182.88Y-111.506
X182.88Y-114.046
X182.88Y-116.586
X182.88Y-119.126
X182.88Y-121.666
X182.88Y-124.206
X182.88Y-126.746
X182.88Y-129.286
X208.28Y-111.506
X208.28Y-114.046
X208.28Y-116.586
X208.28Y-119.126
X208.28Y-121.666
X208.28Y-124.206
X208.28Y-126.746
X208.28Y-129.286
T0
M30
