G04 #@! TF.FileFunction,Legend,Top*
%FSLAX46Y46*%
G04 Gerber Fmt 4.6, Leading zero omitted, Abs format (unit mm)*
G04 Created by KiCad (PCBNEW 4.0.2-stable) date 08/04/2016 14:29:52*
%MOMM*%
G01*
G04 APERTURE LIST*
%ADD10C,0.100000*%
%ADD11C,0.152400*%
%ADD12C,0.150000*%
G04 APERTURE END LIST*
D10*
D11*
X187960000Y-126111000D02*
X187960000Y-126873000D01*
X187960000Y-126873000D02*
X203962000Y-126873000D01*
X203962000Y-126873000D02*
X203962000Y-126111000D01*
D12*
X184150000Y-112776000D02*
X184150000Y-130556000D01*
X184150000Y-130556000D02*
X181610000Y-130556000D01*
X181610000Y-130556000D02*
X181610000Y-112776000D01*
X184430000Y-109956000D02*
X184430000Y-111506000D01*
X184150000Y-112776000D02*
X181610000Y-112776000D01*
X181330000Y-111506000D02*
X181330000Y-109956000D01*
X181330000Y-109956000D02*
X184430000Y-109956000D01*
X209550000Y-112776000D02*
X209550000Y-130556000D01*
X209550000Y-130556000D02*
X207010000Y-130556000D01*
X207010000Y-130556000D02*
X207010000Y-112776000D01*
X209830000Y-109956000D02*
X209830000Y-111506000D01*
X209550000Y-112776000D02*
X207010000Y-112776000D01*
X206730000Y-111506000D02*
X206730000Y-109956000D01*
X206730000Y-109956000D02*
X209830000Y-109956000D01*
X189714095Y-127304381D02*
X189714095Y-128113905D01*
X189761714Y-128209143D01*
X189809333Y-128256762D01*
X189904571Y-128304381D01*
X190095048Y-128304381D01*
X190190286Y-128256762D01*
X190237905Y-128209143D01*
X190285524Y-128113905D01*
X190285524Y-127304381D01*
X191285524Y-128304381D02*
X190714095Y-128304381D01*
X190999809Y-128304381D02*
X190999809Y-127304381D01*
X190904571Y-127447238D01*
X190809333Y-127542476D01*
X190714095Y-127590095D01*
M02*
