G04 #@! TF.FileFunction,Copper,L2,Bot,Signal*
%FSLAX46Y46*%
G04 Gerber Fmt 4.6, Leading zero omitted, Abs format (unit mm)*
G04 Created by KiCad (PCBNEW 4.0.2-stable) date 08/04/2016 14:29:52*
%MOMM*%
G01*
G04 APERTURE LIST*
%ADD10C,0.100000*%
%ADD11R,2.500000X1.100000*%
%ADD12O,2.500000X1.100000*%
%ADD13R,2.032000X1.727200*%
%ADD14O,2.032000X1.727200*%
%ADD15R,1.500000X1.250000*%
%ADD16R,1.300000X1.500000*%
%ADD17R,1.500000X1.300000*%
%ADD18R,2.999740X1.501140*%
%ADD19C,0.250000*%
G04 APERTURE END LIST*
D10*
D11*
X188276000Y-111252000D03*
D12*
X188276000Y-113252000D03*
X188276000Y-115252000D03*
X188276000Y-117252000D03*
X188276000Y-119252000D03*
X188276000Y-121252000D03*
X188276000Y-123252000D03*
X188276000Y-125252000D03*
X203676000Y-125252000D03*
X203576000Y-123252000D03*
X203676000Y-121252000D03*
X203676000Y-119252000D03*
X203676000Y-117252000D03*
X203676000Y-115252000D03*
X203676000Y-113252000D03*
X203676000Y-111252000D03*
D13*
X182880000Y-111506000D03*
D14*
X182880000Y-114046000D03*
X182880000Y-116586000D03*
X182880000Y-119126000D03*
X182880000Y-121666000D03*
X182880000Y-124206000D03*
X182880000Y-126746000D03*
X182880000Y-129286000D03*
D13*
X208280000Y-111506000D03*
D14*
X208280000Y-114046000D03*
X208280000Y-116586000D03*
X208280000Y-119126000D03*
X208280000Y-121666000D03*
X208280000Y-124206000D03*
X208280000Y-126746000D03*
X208280000Y-129286000D03*
D15*
X196180000Y-120170000D03*
X193680000Y-120170000D03*
D16*
X193260000Y-112560000D03*
X193260000Y-115260000D03*
X191110000Y-116690000D03*
X191110000Y-113990000D03*
X191330000Y-121600000D03*
X191330000Y-118900000D03*
D17*
X197278000Y-111506000D03*
X199978000Y-111506000D03*
D16*
X198628000Y-117936000D03*
X198628000Y-115236000D03*
X198628000Y-120316000D03*
X198628000Y-123016000D03*
D18*
X197858980Y-126290000D03*
X193861020Y-126290000D03*
D15*
X194830000Y-128640000D03*
X197330000Y-128640000D03*
D19*
X200742000Y-125252000D02*
X200742000Y-125258000D01*
X199710000Y-126290000D02*
X197858980Y-126290000D01*
X200742000Y-125258000D02*
X199710000Y-126290000D01*
X197330000Y-128640000D02*
X197330000Y-126818980D01*
X197330000Y-126818980D02*
X197858980Y-126290000D01*
X197858980Y-126290000D02*
X199140000Y-126290000D01*
X198628000Y-123016000D02*
X198628000Y-123138000D01*
X198628000Y-123138000D02*
X200742000Y-125252000D01*
X200742000Y-125252000D02*
X202976000Y-125252000D01*
X202976000Y-125252000D02*
X207010000Y-129286000D01*
X207010000Y-129286000D02*
X208280000Y-129286000D01*
X196180000Y-120170000D02*
X196180000Y-120568000D01*
X196180000Y-120568000D02*
X198628000Y-123016000D01*
X194830000Y-128640000D02*
X194830000Y-127258980D01*
X194830000Y-127258980D02*
X193861020Y-126290000D01*
X193861020Y-126290000D02*
X191780000Y-126290000D01*
X190742000Y-125252000D02*
X188976000Y-125252000D01*
X191780000Y-126290000D02*
X190742000Y-125252000D01*
X197278000Y-111506000D02*
X194314000Y-111506000D01*
X194314000Y-111506000D02*
X193260000Y-112560000D01*
X198628000Y-117936000D02*
X196094000Y-117936000D01*
X194400000Y-121700000D02*
X191430000Y-121700000D01*
X194950000Y-121150000D02*
X194400000Y-121700000D01*
X194950000Y-119080000D02*
X194950000Y-121150000D01*
X196094000Y-117936000D02*
X194950000Y-119080000D01*
X191430000Y-121700000D02*
X191330000Y-121600000D01*
X191330000Y-121600000D02*
X191330000Y-122898000D01*
X191330000Y-122898000D02*
X188976000Y-125252000D01*
X191690000Y-121158000D02*
X191864000Y-121572000D01*
X197278000Y-111506000D02*
X197278000Y-113618000D01*
X196596000Y-115904000D02*
X198628000Y-117936000D01*
X196596000Y-114300000D02*
X196596000Y-115904000D01*
X197278000Y-113618000D02*
X196596000Y-114300000D01*
X188976000Y-125252000D02*
X186914000Y-125252000D01*
X186914000Y-125252000D02*
X182880000Y-129286000D01*
X193680000Y-120170000D02*
X193680000Y-119810000D01*
X193680000Y-119810000D02*
X192770000Y-118900000D01*
X191110000Y-113990000D02*
X194690000Y-113990000D01*
X192770000Y-118900000D02*
X191330000Y-118900000D01*
X195020000Y-116650000D02*
X192770000Y-118900000D01*
X195020000Y-114320000D02*
X195020000Y-116650000D01*
X194690000Y-113990000D02*
X195020000Y-114320000D01*
X188976000Y-111252000D02*
X189742000Y-111252000D01*
X191110000Y-112620000D02*
X191110000Y-113990000D01*
X189742000Y-111252000D02*
X191110000Y-112620000D01*
X188976000Y-111252000D02*
X183134000Y-111252000D01*
X183134000Y-111252000D02*
X182880000Y-111506000D01*
X188976000Y-113252000D02*
X183674000Y-113252000D01*
X183674000Y-113252000D02*
X182880000Y-114046000D01*
X193260000Y-115260000D02*
X188984000Y-115260000D01*
X188984000Y-115260000D02*
X188976000Y-115252000D01*
X188976000Y-115252000D02*
X188976000Y-115194000D01*
X188976000Y-115252000D02*
X184214000Y-115252000D01*
X184214000Y-115252000D02*
X182880000Y-116586000D01*
X188976000Y-117252000D02*
X190548000Y-117252000D01*
X190548000Y-117252000D02*
X191110000Y-116690000D01*
X188976000Y-117252000D02*
X184754000Y-117252000D01*
X184754000Y-117252000D02*
X182880000Y-119126000D01*
X188976000Y-119252000D02*
X185294000Y-119252000D01*
X185294000Y-119252000D02*
X182880000Y-121666000D01*
X188976000Y-121252000D02*
X185834000Y-121252000D01*
X185834000Y-121252000D02*
X182880000Y-124206000D01*
X188976000Y-123252000D02*
X186374000Y-123252000D01*
X186374000Y-123252000D02*
X182880000Y-126746000D01*
X202976000Y-111252000D02*
X208026000Y-111252000D01*
X208026000Y-111252000D02*
X208280000Y-111506000D01*
X202976000Y-113252000D02*
X207486000Y-113252000D01*
X207486000Y-113252000D02*
X208280000Y-114046000D01*
X202976000Y-115252000D02*
X206946000Y-115252000D01*
X206946000Y-115252000D02*
X208280000Y-116586000D01*
X202976000Y-117252000D02*
X206406000Y-117252000D01*
X206406000Y-117252000D02*
X208280000Y-119126000D01*
X202976000Y-119252000D02*
X202056000Y-119252000D01*
X201168000Y-112696000D02*
X199978000Y-111506000D01*
X201168000Y-118364000D02*
X201168000Y-112696000D01*
X202056000Y-119252000D02*
X201168000Y-118364000D01*
X202976000Y-119252000D02*
X205866000Y-119252000D01*
X205866000Y-119252000D02*
X208280000Y-121666000D01*
X202976000Y-121252000D02*
X201262000Y-121252000D01*
X200152000Y-116760000D02*
X198628000Y-115236000D01*
X200152000Y-120142000D02*
X200152000Y-116760000D01*
X201262000Y-121252000D02*
X200152000Y-120142000D01*
X202976000Y-121252000D02*
X205326000Y-121252000D01*
X205326000Y-121252000D02*
X208280000Y-124206000D01*
X198628000Y-120316000D02*
X198628000Y-120338000D01*
X198628000Y-120338000D02*
X201542000Y-123252000D01*
X201542000Y-123252000D02*
X202976000Y-123252000D01*
X198628000Y-120316000D02*
X198628000Y-120376000D01*
X204786000Y-123252000D02*
X208280000Y-126746000D01*
X202740000Y-123016000D02*
X202976000Y-123252000D01*
X202976000Y-123252000D02*
X204786000Y-123252000D01*
M02*
